<?xml version="1.0" standalone="no"?>
<!DOCTYPE svg PUBLIC "-//W3C//DTD SVG 20010904//EN"
 "http://www.w3.org/TR/2001/REC-SVG-20010904/DTD/svg10.dtd">
<svg version="1.0" xmlns="http://www.w3.org/2000/svg"
 width="225.000000pt" height="225.000000pt" viewBox="0 0 225.000000 225.000000"
 preserveAspectRatio="xMidYMid meet">

<g transform="translate(0.000000,225.000000) scale(0.100000,-0.100000)"
fill="#000000" stroke="none">
<path d="M805 1566 l-109 -11 -48 -80 c-26 -44 -47 -83 -48 -87 0 -5 20 -8 45
-8 25 0 45 -3 45 -6 0 -27 -73 -119 -123 -155 -42 -30 -92 -38 -127 -19 -15 8
-34 -9 -123 -113 -58 -67 -104 -123 -102 -125 1 -2 14 0 29 4 16 4 36 22 51
48 l25 41 0 -42 0 -43 40 0 c22 0 40 -4 40 -8 0 -5 -18 -19 -41 -31 -37 -21
-39 -24 -22 -36 11 -8 20 -10 24 -3 3 5 9 9 13 8 14 -5 105 11 110 19 6 9 46
22 46 15 0 -14 -102 -48 -175 -58 -11 -2 -22 -13 -25 -25 l-5 -23 -19 21 c-22
25 -49 27 -66 6 -17 -21 -33 -19 -25 4 8 27 -42 36 -56 9 -14 -26 -6 -34 45
-47 73 -18 158 -13 243 14 208 65 383 235 509 491 35 72 64 141 64 154 0 22
-1 22 -20 5 -14 -12 -17 -25 -13 -46 5 -28 -9 -40 -22 -19 -9 15 -48 12 -71
-5 -30 -23 -35 -18 -16 21 l17 36 -30 24 -30 24 42 0 c34 0 46 5 59 25 9 14
20 22 25 19 5 -3 9 0 9 5 0 13 -15 12 -165 -3z m135 -156 c0 -5 -2 -10 -4 -10
-3 0 -8 5 -11 10 -3 6 -1 10 4 10 6 0 11 -4 11 -10z m-30 -69 c-11 -23 -18
-45 -16 -50 3 -4 -8 -21 -24 -36 -26 -25 -29 -34 -24 -64 l7 -34 -32 22 -31
23 -35 -22 c-38 -23 -42 -19 -20 20 19 34 19 36 -12 65 l-28 25 47 0 c42 0 47
2 57 30 13 39 31 39 31 0 0 -25 4 -29 24 -28 12 1 23 7 23 13 -1 23 37 95 45
87 6 -6 1 -26 -12 -51z m-129 -199 c-33 -47 -140 -140 -116 -102 9 14 -2 12
-29 -5 -18 -12 -22 -22 -19 -55 3 -45 -4 -49 -35 -19 l-23 20 -34 -21 c-39
-24 -42 -22 -19 22 15 28 14 31 -5 52 -29 31 -27 36 17 36 35 0 40 4 59 43 20
38 22 40 22 15 1 -46 11 -58 47 -58 19 0 34 -5 34 -12 0 -6 15 6 33 27 66 78
109 114 68 57z"/>
<path d="M990 1528 c0 -7 11 -14 23 -14 14 -1 24 4 24 12 0 8 -10 14 -24 14
-12 0 -23 -6 -23 -12z"/>
<path d="M1020 1341 c-31 -9 -119 -137 -190 -276 -27 -55 -50 -103 -50 -107 0
-23 40 0 128 73 117 97 180 140 292 197 63 33 86 41 88 30 1 -8 -18 -65 -43
-127 -59 -147 -60 -217 -2 -178 12 8 56 47 97 86 92 87 210 173 268 196 63 25
70 13 49 -77 -33 -140 -21 -204 39 -222 26 -8 136 47 203 102 83 67 211 198
211 215 0 10 -33 -18 -82 -69 -130 -135 -255 -217 -298 -194 -31 16 -33 52
-11 134 12 42 21 94 21 116 l0 40 -40 0 c-60 0 -156 -48 -296 -149 -68 -50
-124 -88 -124 -85 0 3 9 24 19 47 42 93 51 121 51 159 0 25 -5 41 -15 44 -33
13 -133 -34 -358 -169 -89 -53 -90 -58 14 105 38 59 69 109 69 112 0 7 -6 6
-40 -3z"/>
<path d="M190 935 c0 -8 4 -15 9 -15 5 0 18 -3 28 -7 17 -6 17 -5 -1 15 -22
26 -36 28 -36 7z"/>
</g>
</svg>
